<?xml version="1.0" encoding="UTF-8" standalone="no"?>
<!DOCTYPE svg PUBLIC "-//W3C//DTD SVG 1.1//EN" "http://www.w3.org/Graphics/SVG/1.1/DTD/svg11.dtd">
<svg width="100%" height="100%" viewBox="0 0 1167 1174" version="1.1" xmlns="http://www.w3.org/2000/svg" xmlns:xlink="http://www.w3.org/1999/xlink" xml:space="preserve" xmlns:serif="http://www.serif.com/" style="fill-rule:evenodd;clip-rule:evenodd;stroke-linecap:round;stroke-linejoin:round;stroke-miterlimit:1.5;">
    <g transform="matrix(1,0,0,1,-47.827523,-27.565295)">
        <g id="Background" transform="matrix(4,0,0,4.003226,-1460,-324.26129)">
            <path d="M536.6,239.599C534.406,242.711 526.093,254.374 525.474,254.506C525.56,254.183 525.879,252.818 526.017,252.47C527.914,247.691 527.578,246.589 529.205,243.37C529.212,243.355 533.208,234.272 535.731,229.625C540.7,220.475 548.43,212.801 550.855,210.924C555.8,207.098 555.763,207.045 561.317,204.142C563.014,203.255 572.322,198.391 584.488,198.146C588.767,198.06 595.364,199.331 596.452,199.663C604.778,202.198 607.472,203.988 612.554,207.422C619.054,211.813 624.889,219.925 626.039,221.797C634.104,234.93 633.363,245.194 633.334,247.498C633.029,271.767 619.129,295.09 611.664,304.624C602.738,316.025 596.251,321.499 590.421,326.404C585.56,330.494 581.737,333.009 581.353,333.284C577.352,336.15 570.399,339.775 567.348,341.157C546.139,350.757 532.097,350.38 530.487,350.457C524.116,350.762 488.371,352.902 453.596,324.379C452.283,323.303 444.923,317.265 438.322,309.648C437.955,309.224 435.095,305.924 433.892,304.211C416.935,280.065 413.231,256.459 413.231,256.459C413.231,256.459 414.864,258.511 416.247,260.681C417.028,261.905 419.329,266.117 424.186,270.826C428.624,275.127 430.198,276.001 433.21,277.956C435.192,279.242 445.725,286.078 461.501,286.406C464.361,286.465 470.911,285.697 471.513,285.579C482.291,283.48 486.841,280.36 490.45,278.415C497.489,274.621 504.849,265.69 510.369,259.426C513.087,256.342 517.522,244.747 518.21,239.415C518.332,238.469 521.726,227.219 522.249,217.287C522.663,209.41 522.695,205.707 522.695,205.707C522.695,205.707 520.745,215.872 518.557,225.157C516.813,232.557 514.735,239.489 514.695,239.609C511.938,247.936 507.109,252.974 499.329,261.345C492.567,268.621 479.864,275.969 467.532,276.844C459.133,277.44 453.779,276.739 449.455,275.684C440.776,273.566 431.93,267.226 426.777,262.214C421.602,257.182 416.277,248.242 414.173,241.61C413.635,239.914 410.748,230.813 412.14,219.458C414.045,203.928 418.537,188.739 428.643,172.592C444.112,147.878 467.143,135.594 469.414,134.345C480.795,128.084 487.864,125.588 499.524,122.592C504.944,121.199 513.341,120.136 513.462,120.128C522.387,119.552 524.588,119.379 527.498,119.546C542.426,120.406 551.957,123.527 558.428,125.712C570.827,129.9 586.243,140.294 589.325,142.728C602.833,153.397 605.97,157.768 612.166,165.754C617.873,173.11 623.036,182.492 626.642,191.44C629.569,198.701 631.711,207.714 631.845,208.426C632.902,214.025 632.899,218.461 632.899,218.461C632.899,218.461 627.826,211.134 625.587,208.429C613.693,194.062 598.898,191.101 597.441,190.731C568.932,183.495 547.664,202.871 547.261,203.21C538.722,210.402 537.329,214.119 533.732,219.641C527.239,229.612 523.101,243.383 521.539,249.515C520.533,253.466 519.16,266.394 518.552,269.51C518.44,270.086 517.994,272.369 512.584,273.784C500.709,276.892 492.131,290.257 491.013,304.467C489.292,326.343 505.159,324.806 515.85,315.923C516.587,315.31 521.41,311.302 524.072,307.208C533.592,292.565 529.494,284.799 527.426,278.525C527.424,278.517 525.794,270.583 526.552,266.508C527.41,261.889 527.263,261.871 527.352,261.473C528.346,257.038 530.517,252.762 530.625,252.514C534.034,247.479 533.632,247.232 537.191,242.315C538.19,240.935 538.355,240.624 538.439,240.467C538.593,240.179 539.766,237.01 539.766,237.01C539.766,237.01 536.756,239.379 536.6,239.599Z" style="fill:rgb(189,108,45);"/>
            <path d="M396.89,201.542C402.715,148.841 443.885,120.008 449.589,115.62C458.165,109.024 472.98,101.067 479.537,98.595C483.015,97.284 504.006,88.189 530.509,87.896C554.292,87.633 566.223,92.443 577.391,96.782C587.164,100.579 599.793,107.857 605.397,111.662C617.816,120.094 620.935,123.322 629.449,131.552C631.701,133.729 639.833,142.721 645.585,151.441C654.379,164.774 657.585,172.311 661.66,183.441C664.865,192.196 667.632,213.934 667.327,212.572C666.969,210.969 665.815,206.927 665.676,206.438C662.474,195.22 655.666,183.606 652.27,178.649C649.493,174.595 649.55,174.581 648.164,172.749C645.773,169.588 638.007,159.987 627.413,151.614C612.815,140.074 601.462,135.853 594.378,132.778C589.984,130.871 582.95,125.983 581.214,124.999C557.644,111.637 539.63,109.764 530.458,108.997C522.257,108.311 508.04,109.952 505.506,110.528C500.193,111.736 493.593,112.37 479.362,118.158C464.362,124.258 451.014,134.1 448.352,136.317C443.279,140.541 443.23,140.461 442.802,140.842C404.197,175.211 401.985,218.607 401.578,221.51C399.796,234.199 400.808,245.467 400.808,245.467C400.808,245.467 399.512,242.137 398.612,237.47C398.035,234.475 398.12,234.486 397.652,231.476C394.962,214.179 396.741,203.08 396.89,201.542Z" style="fill:rgb(29,76,116);"/>
            <g transform="matrix(-1,0,0,-1,1046.025774,468.993052)">
                <path d="M396.89,201.542C402.715,148.841 443.885,120.008 449.589,115.62C458.165,109.024 472.98,101.067 479.537,98.595C483.015,97.284 504.006,88.189 530.509,87.896C554.292,87.633 566.223,92.443 577.391,96.782C587.164,100.579 599.793,107.857 605.397,111.662C617.816,120.094 620.935,123.322 629.449,131.552C631.701,133.729 639.833,142.721 645.585,151.441C654.379,164.774 657.585,172.311 661.66,183.441C664.865,192.196 667.632,213.934 667.327,212.572C666.969,210.969 665.815,206.927 665.676,206.438C662.474,195.22 655.666,183.606 652.27,178.649C649.493,174.595 649.55,174.581 648.164,172.749C645.773,169.588 638.007,159.987 627.413,151.614C612.815,140.074 601.462,135.853 594.378,132.778C589.984,130.871 582.95,125.983 581.214,124.999C557.644,111.637 539.63,109.764 530.458,108.997C522.257,108.311 508.04,109.952 505.506,110.528C500.193,111.736 493.593,112.37 479.362,118.158C464.362,124.258 451.014,134.1 448.352,136.317C443.279,140.541 443.23,140.461 442.802,140.842C404.197,175.211 401.985,218.607 401.578,221.51C399.796,234.199 400.808,245.467 400.808,245.467C400.808,245.467 399.512,242.137 398.612,237.47C398.035,234.475 398.12,234.486 397.652,231.476C394.962,214.179 396.741,203.08 396.89,201.542Z" style="fill:rgb(29,76,116);"/>
            </g>
            <path d="M436.068,226.41C437.432,220.164 439.035,217.436 441.101,214.239C450.431,199.798 463.895,197.038 467.465,196.312C470.19,195.758 478.71,195.63 482.507,196.463C491.55,198.448 496.18,202.421 496.483,202.538C498.267,203.225 498.426,202.393 498.355,200.496C498.3,199.018 498.213,185.782 498.205,184.502C498.082,165.929 497.904,160.514 502.835,154.782C506.025,151.075 515.378,146.102 516.54,149.484C516.758,150.12 516.788,150.137 516.772,181.5C516.758,207.578 517.142,207.714 515.637,211.561C514.602,214.205 502.943,234.668 502.036,236.155C501.575,236.912 499.543,239.382 499.236,235.553C497.895,218.864 484.995,213.653 479.454,213C467.85,211.631 461.415,218.134 460.28,219.282C452.265,227.381 452.812,235.514 452.746,237.508C452.401,247.914 460.179,262.397 476.5,262.447C485.36,262.475 493.866,255.506 494.266,255.737C494.702,255.99 484.425,265.596 474.52,267.607C470.929,268.336 465.276,268.007 463.477,267.607C443.278,263.118 436.97,244.926 435.98,239.407C434.566,231.52 435.525,229.229 436.068,226.41Z" style="fill:rgb(254,254,254);"/>
            <path d="M434.899,321.809C434.899,321.809 413.368,305.928 411.715,304.282C400.741,293.361 398.396,288.154 393.754,281.334C393.718,281.281 389.89,274.717 388.476,271.511C386.27,266.508 377.188,248.394 376.964,224.494C376.842,211.446 378.203,202.644 381.721,189.565C386.107,173.26 397.685,151.857 409.747,138.724C414.398,133.66 415.702,131.494 422.547,125.555C432.192,117.186 438.404,112.509 451.709,104.893C452.329,104.538 452.355,104.616 459.612,100.733C460.069,100.489 465.092,98.117 467.346,97.12C472.924,94.656 480.089,92.92 480.089,92.92C480.089,92.92 467.192,99.547 466.646,99.767C463.814,100.906 463.92,101.101 459.5,103.501C443.447,112.217 430.989,124.625 428.804,126.8C427.144,128.454 406.404,147.635 396.056,178.352C379.518,227.442 402.713,262.778 405.854,270.352C409.196,278.411 409.206,282.237 418.063,297.739C429.024,316.922 434.899,321.809 434.899,321.809Z" style="fill:rgb(29,72,112);"/>
            <g transform="matrix(-1,0,0,-1,1045.545405,468.686296)">
                <path d="M434.899,321.809C434.899,321.809 413.368,305.928 411.715,304.282C400.741,293.361 398.396,288.154 393.754,281.334C393.718,281.281 389.89,274.717 388.476,271.511C386.27,266.508 377.188,248.394 376.964,224.494C376.842,211.446 378.203,202.644 381.721,189.565C386.107,173.26 397.685,151.857 409.747,138.724C414.398,133.66 415.702,131.494 422.547,125.555C432.192,117.186 438.404,112.509 451.709,104.893C452.329,104.538 452.355,104.616 459.612,100.733C460.069,100.489 465.092,98.117 467.346,97.12C472.924,94.656 480.089,92.92 480.089,92.92C480.089,92.92 467.192,99.547 466.646,99.767C463.814,100.906 463.92,101.101 459.5,103.501C443.447,112.217 430.989,124.625 428.804,126.8C427.144,128.454 406.404,147.635 396.056,178.352C379.518,227.442 402.713,262.778 405.854,270.352C409.196,278.411 409.206,282.237 418.063,297.739C429.024,316.922 434.899,321.809 434.899,321.809Z" style="fill:rgb(29,72,112);"/>
            </g>
            <path d="M556.436,217.321C554.088,218.569 549.211,223.131 549.211,223.131C549.211,223.131 555.679,214.712 559.554,212.584C566.642,208.693 571.947,206.851 579.514,207.255C591.491,207.895 599.068,215.345 600.372,216.628C616.753,232.734 611.614,253.788 601.464,265.469C601.013,265.989 589.706,280.788 567.525,280.053C565.73,279.994 559.017,279.054 554.593,277.265C552.96,276.605 543.205,272.662 536.855,264.234C533.581,259.89 534.57,258.268 540.365,247.426C544.173,240.301 545.163,239.508 545.486,239.524C545.773,239.537 546.868,255.042 560.459,260.591C561.135,260.866 566.182,263.539 574.428,262.124C576.055,261.845 588.684,258.796 592.155,244.417C597.23,223.393 578.194,206.255 559.518,215.542C557.709,216.441 557.438,216.789 556.436,217.321Z" style="fill:rgb(254,254,254);"/>
            <path d="M525.54,257.521C525.701,257.131 530.625,252.514 530.625,252.514C530.517,252.762 528.346,257.038 527.352,261.473C527.263,261.871 527.41,261.889 526.552,266.508C525.794,270.583 527.424,278.517 527.426,278.525C529.494,284.799 533.592,292.565 524.072,307.208C521.41,311.302 516.587,315.31 515.85,315.923C505.159,324.806 489.292,326.343 491.013,304.467C492.131,290.257 500.709,276.892 512.584,273.784C517.994,272.369 518.44,270.086 518.552,269.51C519.16,266.394 519.169,266.407 520.038,263.353C520.698,262.699 522.113,261.274 522.195,261.214C522.43,261.041 525.289,258.127 525.54,257.521Z" style="fill:rgb(254,254,253);"/>
            <path d="M535.656,199.756C529.585,203.48 522.695,216.448 522.695,216.448C522.695,216.448 522.687,211.814 523.094,205.464C523.54,198.516 527.508,197.593 526.196,190.56C524.727,182.689 522.035,179.983 539.641,157.608C544.303,151.684 547.07,147.941 548.598,148.062C550.378,148.204 549.026,150.505 548.919,150.687C539.081,167.422 532.544,175.444 535.571,176.276C537.188,176.72 539.25,172.299 541.706,168.636C542.41,167.585 549.533,156.959 550.45,155.466C550.802,154.892 553.064,151.687 553.451,151.428C555.31,150.187 556.18,151.362 555.249,153.404C554.145,155.824 541.389,176.975 541.129,178.434C540.743,180.602 542.496,181.089 543.584,179.58C544.429,178.409 544.153,178.236 553.185,164.301C554.897,161.66 557.156,158.044 557.497,157.498C560.095,153.34 561.13,155.283 561.238,155.601C561.777,157.186 558.361,161.648 550.637,176.572C548.298,181.091 546.714,183.243 547.838,184.069C549.071,184.975 550.496,182.812 550.635,182.601C554.29,177.051 564.044,159.58 564.817,158.901C565.576,158.235 567.196,158.233 566.85,160.54C566.813,160.789 558.575,181.793 553.407,189.437C546.681,199.383 539.264,197.543 535.656,199.756Z" style="fill:rgb(254,254,254);"/>
            <path d="M494.953,305.525C495.106,303.994 496.034,294.674 501.338,287.389C510.278,275.111 519.044,278.808 520.359,279.709C526.527,283.938 526.281,294.344 523.225,300.37C519.298,308.113 513.923,312.203 512.885,312.994C512.158,313.547 507.19,317.328 502.53,317.807C493.647,318.722 494.93,307.237 494.953,305.525Z" style="fill:rgb(201,122,58);"/>
            <g>
                <g transform="matrix(0.25,0,0,0.249799,365,81)">
                    <path d="M623,278.471C647.849,278.471 672.082,281.127 695.431,286.17" style="fill:none;stroke:rgb(233,156,106);stroke-width:13.33px;"/>
                </g>
                <g transform="matrix(0.25,0,0,0.249799,365,81)">
                    <path d="M818.625,339.976C849.215,361.358 876.152,387.614 898.305,417.613" style="fill:none;stroke:rgb(233,156,106);stroke-width:13.33px;"/>
                </g>
                <g transform="matrix(0.25,0,0,0.249799,365,81)">
                    <path d="M918.433,792.85C859.071,894.314 748.939,962.529 623,962.529" style="fill:none;stroke:rgb(233,156,106);stroke-width:13.33px;"/>
                </g>
                <g transform="matrix(0.25,0,0,0.249799,365,81)">
                    <path d="M482.524,932.398C437.551,912.091 397.743,882.339 365.635,845.677" style="fill:none;stroke:rgb(233,156,106);stroke-width:13.33px;"/>
                </g>
                <g transform="matrix(0.25,0,0,0.249799,365,81)">
                    <path d="M309.549,483.517C347.964,395.827 422.115,327.297 513.535,296.392" style="fill:none;stroke:rgb(233,156,106);stroke-width:13.33px;"/>
                </g>
            </g>
        </g>
    </g>
</svg>
